<?xml version="1.0" encoding="UTF-8"?>
<svg width="4660" height="700" fill="currentColor" version="1.1" viewBox="0 0 4660 700"
  xmlns="http://www.w3.org/2000/svg">
  <g transform="translate(-36.818 -2.2195e-5)" aria-label="System Bridge">
    <path
      d="m343.12 158.52q-4.0909-36.307-33.75-56.25-29.659-20.199-74.659-20.199-32.216 0-55.739 10.227-23.523 9.9716-36.562 27.614-12.784 17.386-12.784 39.631 0 18.665 8.6932 32.216 8.9489 13.551 23.267 22.756 14.574 8.9489 31.193 15.085 16.619 5.8807 31.96 9.7159l51.136 13.295q25.057 6.1364 51.392 16.619 26.335 10.483 48.835 27.614t36.307 42.443q14.062 25.312 14.062 60.597 0 44.489-23.011 79.006-22.756 34.517-66.222 54.46-43.21 19.943-104.57 19.943-58.807 0-101.76-18.665-42.955-18.665-67.244-52.926-24.29-34.517-26.847-81.818h79.261q2.3011 28.381 18.409 47.301 16.364 18.665 41.676 27.869 25.568 8.9489 55.994 8.9489 33.494 0 59.574-10.483 26.335-10.739 41.42-29.659 15.085-19.176 15.085-44.744 0-23.267-13.295-38.097-13.04-14.83-35.54-24.545-22.244-9.7159-50.369-17.131l-61.875-16.875q-62.898-17.131-99.716-50.369-36.562-33.239-36.562-87.955 0-45.256 24.545-79.006 24.545-33.75 66.477-52.415 41.932-18.92 94.602-18.92 53.182 0 93.835 18.665 40.909 18.665 64.432 51.392 23.523 32.472 24.545 74.659z" />
    <path
      d="m539.01 691.88q-17.131 0-31.193-2.8125-14.062-2.5568-20.966-5.625l18.409-62.642q20.966 5.625 37.33 4.858 16.364-0.76704 28.892-12.273 12.784-11.506 22.5-37.585l9.4602-26.08-143.69-397.84h81.818l99.46 304.77h4.0909l99.46-304.77h82.074l-161.85 445.14q-11.25 30.682-28.636 51.903-17.386 21.477-41.42 32.216-24.034 10.739-55.739 10.739z" />
    <path
      d="m1168.8 247.76-69.29 12.273q-4.3465-13.295-13.807-25.312-9.2045-12.017-25.057-19.688-15.852-7.6704-39.631-7.6704-32.472 0-54.205 14.574-21.733 14.318-21.733 37.074 0 19.688 14.574 31.705 14.574 12.017 47.045 19.688l62.386 14.318q54.205 12.528 80.796 38.608 26.591 26.08 26.591 67.756 0 35.284-20.455 62.898-20.199 27.358-56.506 42.955-36.051 15.597-83.608 15.597-65.966 0-107.64-28.125-41.676-28.381-51.136-80.54l73.892-11.25q6.9034 28.892 28.381 43.722 21.477 14.574 55.994 14.574 37.585 0 60.085-15.597 22.5-15.852 22.5-38.608 0-18.409-13.807-30.938-13.551-12.528-41.676-18.92l-66.477-14.574q-54.972-12.528-81.307-39.886-26.08-27.358-26.08-69.29 0-34.773 19.432-60.852t53.693-40.653q34.261-14.83 78.494-14.83 63.665 0 100.23 27.614 36.562 27.358 48.324 73.381z" />
    <path
      d="m1419.6 151.88v61.364h-214.52v-61.364zm-156.99-94.091h76.449v371.51q0 22.244 6.6477 33.494 6.6478 10.994 17.131 15.085 10.739 3.8352 23.267 3.8352 9.2045 0 16.108-1.2784t10.739-2.0455l13.807 63.153q-6.6478 2.5568-18.92 5.1136-12.273 2.8125-30.682 3.0682-30.17 0.51136-56.25-10.739-26.08-11.25-42.188-34.773-16.108-23.523-16.108-59.062z" />
    <path
      d="m1645.2 552.53q-58.04 0-99.972-24.801-41.676-25.057-64.432-70.312-22.5-45.511-22.5-106.62 0-60.341 22.5-106.36 22.756-46.023 63.409-71.847 40.909-25.824 95.625-25.824 33.239 0 64.432 10.994 31.193 10.994 55.994 34.517t39.119 61.108q14.318 37.33 14.318 90.767v27.102h-312.19v-57.273h237.27q0-30.17-12.273-53.438-12.273-23.523-34.517-37.074-21.989-13.551-51.648-13.551-32.216 0-56.25 15.852-23.778 15.597-36.818 40.909-12.784 25.057-12.784 54.46v44.744q0 39.375 13.807 66.989 14.062 27.614 39.119 42.188 25.057 14.318 58.551 14.318 21.733 0 39.631-6.1364 17.898-6.392 30.938-18.92t19.943-30.938l72.358 13.04q-8.6932 31.96-31.193 55.994-22.244 23.778-55.994 37.074-33.494 13.04-76.449 13.04z" />
    <path
      d="m1874.8 544.6v-392.73h73.381v63.92h4.8579q12.273-32.472 40.142-50.625 27.869-18.409 66.733-18.409 39.375 0 65.966 18.409 26.847 18.409 39.631 50.625h4.0909q14.062-31.449 44.744-50.114 30.682-18.92 73.125-18.92 53.438 0 87.188 33.494 34.006 33.494 34.006 100.99v263.35h-76.449v-256.19q0-39.886-21.733-57.784-21.733-17.898-51.903-17.898-37.33 0-58.04 23.011-20.71 22.756-20.71 58.551v250.31h-76.193v-261.05q0-31.96-19.943-51.392-19.943-19.432-51.903-19.432-21.733 0-40.142 11.506-18.153 11.25-29.403 31.449-10.994 20.199-10.994 46.79v242.13z" />
    <path
      d="m2659.8 544.6v-523.64h191.76q55.739 0 92.301 18.409 36.562 18.153 54.716 49.347 18.153 30.937 18.153 69.801 0 32.727-12.017 55.227-12.017 22.244-32.216 35.795-19.943 13.295-43.977 19.432v5.1136q26.08 1.2784 50.881 16.875 25.057 15.341 41.42 43.722 16.364 28.381 16.364 69.034 0 40.142-18.92 72.102-18.665 31.705-57.784 50.369-39.119 18.409-99.972 18.409zm79.006-67.756h114.03q56.761 0 81.307-21.989 24.546-21.989 24.546-54.972 0-24.801-12.528-45.511t-35.796-32.983q-23.011-12.273-54.716-12.273h-116.85zm0-229.35h105.85q26.591 0 47.812-10.227 21.477-10.227 34.006-28.636 12.784-18.665 12.784-43.977 0-32.472-22.756-54.46-22.756-21.989-69.801-21.989h-107.9z" />
    <path
      d="m3100.7 544.6v-392.73h73.892v62.386h4.0909q10.739-31.705 37.841-49.858 27.358-18.409 61.875-18.409 7.1591 0 16.875 0.51136 9.9716 0.51137 15.597 1.2784v73.125q-4.6023-1.2784-16.364-2.8125-11.761-1.7898-23.523-1.7898-27.102 0-48.324 11.506-20.966 11.25-33.239 31.449-12.273 19.943-12.273 45.511v239.83z" />
    <path
      d="m3353.3 544.6v-392.73h76.449v392.73zm38.608-453.32q-19.943 0-34.261-13.295-14.062-13.551-14.062-32.216 0-18.92 14.062-32.216 14.318-13.551 34.261-13.551t34.006 13.551q14.318 13.295 14.318 32.216 0 18.665-14.318 32.216-14.062 13.295-34.006 13.295z" />
    <path
      d="m3655.6 552.27q-47.557 0-84.886-24.29-37.074-24.545-58.295-69.801-20.966-45.511-20.966-109.18 0-63.665 21.222-108.92 21.477-45.256 58.807-69.29 37.33-24.034 84.631-24.034 36.562 0 58.807 12.273 22.5 12.017 34.773 28.125 12.528 16.108 19.432 28.381h4.6023v-194.57h76.449v523.64h-74.659v-61.108h-6.3921q-6.9034 12.528-19.943 28.636-12.784 16.108-35.284 28.125-22.5 12.017-58.296 12.017zm16.875-65.199q32.983 0 55.739-17.386 23.011-17.642 34.773-48.835 12.017-31.193 12.017-72.614 0-40.909-11.761-71.591-11.761-30.682-34.517-47.812t-56.25-17.131q-34.517 0-57.528 17.898-23.011 17.898-34.773 48.835-11.506 30.938-11.506 69.801 0 39.375 11.761 70.824 11.761 31.449 34.773 49.858 23.267 18.153 57.273 18.153z" />
    <path
      d="m4099.7 700.06q-46.79 0-80.54-12.273-33.494-12.273-54.716-32.472-21.222-20.199-31.704-44.233l65.71-27.102q6.9034 11.25 18.409 23.778 11.761 12.784 31.704 21.733 20.199 8.9489 51.903 8.9489 43.466 0 71.847-21.222 28.381-20.966 28.381-66.989v-77.216h-4.8579q-6.9035 12.528-19.943 27.869-12.784 15.341-35.284 26.591t-58.551 11.25q-46.534 0-83.864-21.733-37.074-21.989-58.807-64.688-21.477-42.955-21.477-105.6 0-62.642 21.222-107.39 21.477-44.744 58.807-68.523 37.33-24.034 84.631-24.034 36.562 0 59.062 12.273 22.5 12.017 35.028 28.125 12.784 16.108 19.688 28.381h5.625v-63.665h74.915v401.42q0 50.625-23.523 83.097-23.523 32.472-63.665 48.068-39.886 15.597-90 15.597zm-0.7671-224.74q32.983 0 55.739-15.341 23.011-15.597 34.773-44.489 12.017-29.148 12.017-69.801 0-39.631-11.761-69.801-11.761-30.17-34.517-47.045-22.756-17.131-56.25-17.131-34.517 0-57.528 17.898-23.011 17.642-34.773 48.068-11.506 30.426-11.506 68.011 0 38.608 11.761 67.756t34.773 45.511q23.267 16.364 57.273 16.364z" />
    <path
      d="m4524.7 552.53q-58.04 0-99.972-24.801-41.676-25.057-64.432-70.312-22.5-45.511-22.5-106.62 0-60.341 22.5-106.36 22.756-46.023 63.409-71.847 40.909-25.824 95.625-25.824 33.239 0 64.432 10.994 31.193 10.994 55.994 34.517 24.801 23.523 39.119 61.108 14.318 37.33 14.318 90.767v27.102h-312.19v-57.273h237.27q0-30.17-12.273-53.438-12.273-23.523-34.517-37.074-21.989-13.551-51.648-13.551-32.216 0-56.25 15.852-23.778 15.597-36.818 40.909-12.784 25.057-12.784 54.46v44.744q0 39.375 13.807 66.989 14.062 27.614 39.119 42.188 25.057 14.318 58.551 14.318 21.733 0 39.631-6.1364 17.898-6.392 30.938-18.92t19.943-30.938l72.358 13.04q-8.6932 31.96-31.193 55.994-22.244 23.778-55.994 37.074-33.494 13.04-76.449 13.04z" />
  </g>
</svg>
