<?xml version="1.0" encoding="UTF-8"?>
<svg width="48" height="48" version="1.1" xmlns="http://www.w3.org/2000/svg" xmlns:cc="http://creativecommons.org/ns#" xmlns:dc="http://purl.org/dc/elements/1.1/" xmlns:rdf="http://www.w3.org/1999/02/22-rdf-syntax-ns#">
 <title>System Bridge Circle</title>
 <metadata>
  <rdf:RDF>
   <cc:Work rdf:about="">
    <dc:format>image/svg+xml</dc:format>
    <dc:type rdf:resource="http://purl.org/dc/dcmitype/StillImage"/>
    <dc:title>System Bridge Circle</dc:title>
   </cc:Work>
  </rdf:RDF>
 </metadata>
 <defs>
  <linearGradient id="color-1" x1="5.2618" x2="75.286" y1="14.631" y2="65.917" gradientUnits="userSpaceOnUse">
   <stop stop-opacity=".3" offset="0"/>
   <stop stop-opacity="0" offset="1"/>
  </linearGradient>
 </defs>
 <g font-family="none" font-size="none" font-weight="none" stroke-dasharray="" stroke-miterlimit="10" text-anchor="none" style="mix-blend-mode:normal">
  <path d="m2 24c0-12.15 9.8497-22 22-22s22 9.8497 22 22-9.8497 22-22 22-22-9.8497-22-22z" fill="#512da8"/>
  <path d="m5.2618 29.962v-3.407h3.4069v-11.924h3.4069l5.7761 5.7761c1.4469 0.50644 2.9902 0.84206 4.5989 0.97433l0.66605 0.04289c0.29254 0.01364 0.58705 0.02056 0.88337 0.02056 4.6505 0 8.858-1.7034 11.924-4.3779v-2.4359h3.407l6.4808 6.4808c0.12395 0.94519 0.18789 1.9093 0.18789 2.8883 0 12.15-9.8497 22-22 22-0.979 0-1.9431-0.06395-2.8882-0.18789z" fill="url(#color-1)"/>
  <path d="m8.6687 14.631v11.924h-3.4069v3.407h3.4069v3.4069h3.4069v-3.4069h23.849v3.4069h3.407v-3.4069h3.4069v-3.407h-3.4069v-11.924h-3.407v2.4359c-3.0662 2.6745-7.2738 4.3779-11.924 4.3779s-8.8582-1.7034-11.924-4.3779v-2.4359zm27.691 0.12387h2.6685c0.09209-1e-5 0.16676 0.07462 0.1668 0.16671v0.66719c-4e-5 0.09209-0.07471 0.16672-0.1668 0.16671h-2.6685c-0.09209 1e-5 -0.16676-0.07462-0.1668-0.16671v-0.66719c4e-5 -0.09209 0.07471-0.16672 0.1668-0.16671zm-26.949 0.15016h1.9327c0.26685 0 0.48317 0.21633 0.48317 0.48317v3.8654c0 0.26685-0.21633 0.48317-0.48317 0.48317h-1.9327c-0.26685 0-0.48317-0.21633-0.48317-0.48317v-3.8654c0-0.26685 0.21633-0.48317 0.48317-0.48317zm27.116 0.18335v0.3336h0.33351v-0.3336zm0.6671 0v0.3336h0.1668v-0.3336zm-27.783 0.29982v0.48317h1.9327v-0.48317zm26.949 0.70089h2.6685c0.09212-1e-5 0.16681 0.07467 0.1668 0.1668v0.66711c1e-5 0.09212-0.07467 0.16681-0.1668 0.1668h-2.6685c-0.09212 1e-5 -0.16681-0.07467-0.1668-0.1668v-0.66711c-1e-5 -0.09212 0.07467-0.16681 0.1668-0.1668zm-26.949 0.26546v0.48317h1.9327v-0.48317zm27.116 0.06813v0.33351h0.33351v-0.33351zm0.6671 0v0.33351h0.1668v-0.33351zm-0.8339 1.0007h2.6685c0.09212-1e-5 0.16681 0.07467 0.1668 0.1668v0.66711c1e-5 0.09212-0.07467 0.16681-0.1668 0.1668h-2.6685c-0.09212 1e-5 -0.16681-0.07467-0.1668-0.1668v-0.66711c-1e-5 -0.09212 0.07467-0.16681 0.1668-0.1668zm0.1668 0.33352v0.3336h0.33351v-0.3336zm0.6671 0v0.3336h0.1668v-0.3336zm-26.334 1.0135v0.48317h0.48317v-0.48317zm1.2161 0.47693c1.0392 0.80061 2.1805 1.4821 3.407 2.0442v5.2637h-3.407zm23.849 0v7.3079h-3.4069v-5.2637c1.2265-0.5622 2.3678-1.2436 3.4069-2.0442zm-18.738 2.7426c1.0903 0.39197 2.2316 0.68172 3.407 0.88582v3.6794h1.1356c-0.3136 2e-5 -0.56784-0.24759-0.56786-0.55305v-2.7655c0-0.30697 0.25272-0.55305 0.56786-0.55305h4.5426c0.3123 0 0.56786 0.24608 0.56786 0.55305v2.7655c-3e-5 0.30546-0.25426 0.55307-0.56786 0.55305h1.1356v-3.6794c1.1754-0.20441 2.3168-0.49436 3.407-0.88582v4.5653h-3.407v0.55314h-6.8138v-0.55314h-3.407zm9.0823 4.0122c-11.743-14.213-5.8715-7.1068 0 0zm0 0v-2.7655h-4.5396v2.7655z" fill="none" stroke-width="0"/>
  <path d="m12.076 14.631v2.4359c2.7218 2.3741 6.3431 3.983 10.375 4.3145 0.32766 0.3966 0.68577 0.83004 1.0759 1.3022 0.14769 0.17876 0.29997 0.36308 0.45693 0.55305h2.2848v2.7655h-4.5396v-2.7655h2.2548c-0.15422-0.18666-0.30665-0.37117-0.45693-0.55305h-1.7979c-0.31514 0-0.56786 0.24608-0.56786 0.55305v2.7655c3e-5 0.30544 0.25422 0.55303 0.56778 0.55305h-1.1356v-3.6794c-1.1754-0.20409-2.3167-0.49385-3.407-0.88582v4.5653h3.407v0.55314h6.8138v-0.55314h3.407v-4.5653c-1.0902 0.39145-2.2316 0.6814-3.407 0.88582v3.6794h-1.1356c0.31356-2e-5 0.56776-0.24761 0.56778-0.55305v-2.7655c0-0.30697-0.25556-0.55305-0.56786-0.55305h-2.7447c-0.37394-0.45261-0.7345-0.88902-1.0759-1.3022 0.51021 0.04195 1.027 0.06344 1.5494 0.06344 4.6505 0 8.858-1.7034 11.924-4.3779v-2.4359h3.407v11.924h3.4069v3.407h-3.4069v3.4069h-3.407v-3.4069h-23.849v3.4069h-3.4069v-3.4069h-3.4069v-3.407h3.4069v-11.924zm24.117 0.29059v0.66719c4e-5 0.09209 0.07471 0.16672 0.1668 0.16671h2.6685c0.09209 1e-5 0.16676-0.07462 0.1668-0.16671v-0.66719c-4e-5 -0.09209-0.07471-0.16672-0.1668-0.16671h-2.6685c-0.09209-1e-5 -0.16676 0.07462-0.1668 0.16671zm-27.266 0.46661v3.8654c0 0.26685 0.21633 0.48317 0.48317 0.48317h1.9327c0.26685 0 0.48317-0.21633 0.48317-0.48317v-3.8654c0-0.26685-0.21633-0.48317-0.48317-0.48317h-1.9327c-0.26685 0-0.48317 0.21633-0.48317 0.48317zm27.933-0.29982v0.3336h-0.33351v-0.3336zm0.50039 0v0.3336h-0.1668v-0.3336zm-26.017 0.29982v0.48317h-1.9327v-0.48317zm24.85 0.86768v0.66711c-1e-5 0.09212 0.07467 0.16681 0.1668 0.1668h2.6685c0.09212 1e-5 0.16681-0.07467 0.1668-0.1668v-0.66711c1e-5 -0.09212-0.07467-0.16681-0.1668-0.1668h-2.6685c-0.09212-1e-5 -0.16681 0.07467-0.1668 0.1668zm-24.85 0.09867v0.48317h-1.9327v-0.48317zm25.517 0.06813v0.33351h-0.33351v-0.33351zm0.50039 0v0.33351h-0.1668v-0.33351zm-1.1675 1.1675v0.66711c-1e-5 0.09212 0.07467 0.16681 0.1668 0.1668h2.6685c0.09212 1e-5 0.16681-0.07467 0.1668-0.1668v-0.66711c1e-5 -0.09212-0.07467-0.16681-0.1668-0.1668h-2.6685c-0.09212-1e-5 -0.16681 0.07467-0.1668 0.1668zm0.66711 0.16672v0.3336h-0.33351v-0.3336zm0.50039 0v0.3336h-0.1668v-0.3336zm-26.017 1.0135v0.48317h-0.48317v-0.48317zm0.73291 7.7848h3.407v-5.2637c-1.2265-0.56207-2.3678-1.2436-3.407-2.0442zm20.442-5.2637v5.2637h3.4069v-7.3079c-1.0391 0.80061-2.1804 1.482-3.4069 2.0442zm-10.789 5.2637h-8e-5zm4.5426 0h8e-5 -8e-5z" fill="#fff" stroke-width="0"/>
  <path d="m2 24c0-12.15 9.8497-22 22-22s22 9.8497 22 22-9.8497 22-22 22-22-9.8497-22-22z" fill="none"/>
  <g font-family="Roboto, sans-serif" font-size="14" font-weight="400" text-anchor="start"></g>
  <g fill="none">
   <rect x="2" y="2" width="44" height="22"/>
   <path d="m2 24v-22h44v22z"/>
   <path d="m2 24v-22h44v22z"/>
   <path d="m2 24v-22h44v22z"/>
   <path d="m2 24v-22h44v22z"/>
  </g>
 </g>
</svg>
