<?xml version="1.0" encoding="UTF-8"?>
<svg width="2560" height="460" version="1.1" xmlns="http://www.w3.org/2000/svg">
 <defs>
  <linearGradient id="linearGradient874" x1="5.2618" x2="69.051" y1="14.631" y2="61.394" gradientTransform="matrix(16.359,0,0,16.359,889.37,-118.63)" gradientUnits="userSpaceOnUse">
   <stop stop-opacity=".3" offset="0"/>
   <stop stop-opacity="0" offset="1"/>
  </linearGradient>
 </defs>
 <g transform="translate(-2 2.5858)" font-family="none" font-size="none" font-weight="none" stroke-miterlimit="10" text-anchor="none" style="mix-blend-mode:normal">
  <rect x="2" y="-2.5005" width="2560" height="470.5" fill="#512da8" stroke-width="51.016"/>
  <path d="m975.45 371.54v-55.737h55.735v-195.07h55.735l94.493 94.493c23.67 8.2851 48.75 13.499 75.068 15.663l10.896 0.70158c4.7857 0.22409 9.6039 0.33613 14.451 0.33613 76.079 0 145.08-27.591 195.24-71.344v-39.85h55.737l336.22 347.86v273.21c0 18.07-14.649 32.719-32.719 32.719h-469.52z" fill="url(#linearGradient874)" stroke-width="16.359"/>
  <path d="m306.94-233.6v545.26h-155.79v155.79h155.79v155.79h155.79v-155.79h1090.5v155.79h155.79v-155.79h155.79v-155.79h-155.79v-545.26h-155.79v111.39c-140.21 122.3-332.61 200.19-545.26 200.19s-405.06-77.894-545.27-200.19v-111.39zm1266.2 5.6642h122.02c4.211-4.6e-4 7.6255 3.4122 7.6273 7.6232v30.509c0 4.211-3.4163 7.6236-7.6273 7.6232h-122.02c-4.211 4.5e-4 -7.6255-3.4122-7.6273-7.6232v-30.509c0-4.211 3.4163-7.6236 7.6273-7.6232zm-1232.3 6.8664h88.377c12.202 0 22.094 9.8922 22.094 22.094v176.75c0 12.202-9.8922 22.094-22.094 22.094h-88.377c-12.202 0-22.094-9.8922-22.094-22.094v-176.75c0-12.202 9.8922-22.094 22.094-22.094zm1240 8.3841v15.255h15.25v-15.255zm30.505 0v15.255h7.6273v-15.255zm-1270.5 13.71v22.094h88.377v-22.094zm1232.3 32.05h122.02c4.2124-4.5e-4 7.6278 3.4145 7.6273 7.6273v30.505c5e-4 4.2124-3.4145 7.6278-7.6273 7.6273h-122.02c-4.2124 4.6e-4 -7.6278-3.4144-7.6273-7.6273v-30.505c-5e-4 -4.2124 3.4145-7.6278 7.6273-7.6273zm-1232.3 12.139v22.094h88.377v-22.094zm1240 3.1154v15.251h15.25v-15.251zm30.505 0v15.251h7.6273v-15.251zm-38.132 45.759h122.02c4.2124-4.6e-4 7.6278 3.4144 7.6273 7.6273v30.505c5e-4 4.2124-3.4145 7.6278-7.6273 7.6273h-122.02c-4.2124 4.57e-4 -7.6278-3.4145-7.6273-7.6273v-30.505c-5e-4 -4.2124 3.4145-7.6278 7.6273-7.6273zm7.6273 15.251v15.255h15.25v-15.255zm30.505 0v15.255h7.6273v-15.255zm-1204.2 46.345v22.094h22.094v-22.094zm55.608 21.809c47.518 36.61 99.708 67.772 155.79 93.474v240.7h-155.79zm1090.5 0v334.17h-155.79v-240.7c56.084-25.708 108.27-56.865 155.79-93.474zm-856.85 125.41c49.855 17.924 102.05 31.173 155.79 40.506v168.25h51.93c-14.34 9.1e-4 -25.966-11.322-25.967-25.289v-126.46c0-14.037 11.556-25.289 25.967-25.289h207.72c14.281 0 25.967 11.253 25.967 25.289v126.46c0 13.968-11.627 25.29-25.967 25.289h51.93v-168.25c53.75-9.3471 105.94-22.606 155.79-40.506v208.76h-155.79v25.294h-311.58v-25.294h-155.79zm415.31 183.47c-536.98-649.94-268.49-324.97 0 0zm0 0v-126.46h-207.59v126.46z" fill="none" stroke-width="0"/>
  <path d="m1086.9 120.73v39.85c44.528 38.838 103.77 65.159 169.73 70.583 5.3603 6.4882 11.219 13.579 17.601 21.304 2.4163 2.9242 4.9073 5.9398 7.4751 9.0476h37.379v45.242h-74.266v-45.242h36.887c-2.523-3.0539-5.0166-6.0722-7.4751-9.0476h-29.412c-5.1554 0-9.2898 4.026-9.2898 9.0476v45.242c4e-4 4.997 4.1588 9.0473 9.2885 9.0477h-18.577v-60.194c-19.229-3.3388-37.9-8.0791-55.736-14.492v74.685h55.736v9.0491h111.47v-9.0491h55.737v-74.685c-17.835 6.4039-36.507 11.147-55.737 14.492v60.194h-18.577c5.1297-3.6e-4 9.2881-4.051 9.2885-9.0477v-45.242c0-5.022-4.1807-9.0476-9.29-9.0476h-44.901c-6.1174-7.4045-12.016-14.544-17.601-21.304 8.3467 0.68612 16.801 1.0377 25.347 1.0377 76.079 0 144.91-27.867 195.07-71.62v-39.85h55.737v195.07h55.735v55.737h-55.735v55.735h-55.737v-55.735h-390.15v55.735h-55.735v-55.735h-55.735v-55.737h55.735v-195.07zm394.54 4.7537v10.915c6e-4 1.5067 1.2223 2.7274 2.7284 2.7274h43.655c1.5068 1.1e-4 2.7279-1.2207 2.729-2.7274v-10.915c-6e-4 -1.5067-1.2222-2.7274-2.729-2.7274h-43.655c-1.5067-1.6e-4 -2.7279 1.2207-2.7284 2.7274zm-446.05 7.6335v63.236c0 4.3653 3.5389 7.9044 7.9043 7.9044h31.618c4.3652 0 7.9043-3.5389 7.9043-7.9044v-63.235c0-4.3653-3.5388-7.9044-7.9043-7.9044h-31.618c-4.3652 0-7.9043 3.5389-7.9043 7.9044zm456.97-4.9047v5.4575h-5.4561v-5.4575zm8.186 0v5.4575h-2.7283v-5.4575zm-425.63 4.9047v7.9044h-31.618v-7.9042zm406.53 14.195v10.914c-2e-4 1.5072 1.2217 2.729 2.7284 2.7284h43.655c1.5072 1.6e-4 2.729-1.2218 2.729-2.7284v-10.914c2e-4 -1.5072-1.2218-2.729-2.729-2.729h-43.655c-1.5067-1.6e-4 -2.729 1.2218-2.7284 2.729zm-406.53 1.6144v7.9044h-31.618v-7.9044zm417.45 1.1145v5.4561h-5.4561v-5.4561zm8.186 0v5.4561h-2.7283v-5.4559zm-19.1 19.1v10.914c-2e-4 1.5067 1.2217 2.729 2.7284 2.729h43.655c1.5072 1.5e-4 2.729-1.2218 2.729-2.729v-10.914c2e-4 -1.5072-1.2218-2.729-2.729-2.729h-43.655c-1.5067-1.6e-4 -2.729 1.2218-2.7284 2.729zm10.914 2.7274v5.4575h-5.4561v-5.4576zm8.186 0v5.4575h-2.7283v-5.4576zm-425.63 16.58v7.9044h-7.9043v-7.9044zm11.99 127.36h55.737v-86.112c-20.065-9.1951-38.737-20.344-55.737-33.442zm334.42-86.112v86.112h55.735v-119.55c-16.999 13.098-35.67 24.244-55.735 33.441zm-176.5 86.112c-5e-4 0-8e-4 0 0 0zm74.314 0c-5e-4 0-9e-4 0 0 0z" fill="#fff" stroke-width="0"/>
  <path d="m2 194.83c0-555.6 450.4-1006 1006-1006s1006 450.4 1006 1006-450.4 1006-1006 1006-1006-450.4-1006-1006z" fill="none" stroke-width="45.727"/>
  <g fill="none" stroke-width="45.727">
   <rect x="2" y="-811.17" width="2012" height="1006"/>
   <path d="m2 194.83v-1006h2012v1006z"/>
   <path d="m2 194.83v-1006h2012v1006z"/>
   <path d="m2 194.83v-1006h2012v1006z"/>
   <path d="m2 194.83v-1006h2012v1006z"/>
  </g>
 </g>
</svg>
